<svg id="DEOKSUYI" width="260px" height="260px" viewBox="0 0 52 52" version="1.1"
xmlns="http://www.w3.org/2000/svg"><g id="DSYIMAP" fill="transparent" stroke="#777"
stroke-width="2" ><path id="M" d="M18,2C18,2 22,2 26,4C30,2 34,2
34,2L50,2L50,18C50,18 50,22 48,26C50,30 50,34 50,34L50,50L34,50C34,50 30,50
26,48C22,50 18,50 18,50L2,50L2,34C2,34 2,30 4,26C2,22 2,18 2,18L2,2L18,2"/><circle
id="SH" cx="26" cy="26" r="16"/><path id="YO"
d="M15,25L37,25M22,25L22,18M30,25L30,18"/><path id="g28" stroke-width="1" d="M18,29L22,29M18,33L22,33M26,29L26,33M24,31L28,31M31,29L30,33M33,29L34,33"/></g></svg>
