<?xml version="1.0" encoding="UTF-8" standalone="no"?><!DOCTYPE svg PUBLIC "-//W3C//DTD SVG 1.1//EN" "http://www.w3.org/Graphics/SVG/1.1/DTD/svg11.dtd"><svg width="100%" height="100%" viewBox="0 0 260 260" version="1.1" xmlns="http://www.w3.org/2000/svg" xmlns:xlink="http://www.w3.org/1999/xlink" xml:space="preserve" xmlns:serif="http://www.serif.com/" style="fill-rule:evenodd;clip-rule:evenodd;stroke-linejoin:round;stroke-miterlimit:2;"><g id="DeoksuYiMap"><path d="M260,25.433c0,-14.037 -11.396,-25.433 -25.433,-25.433l-209.134,0c-14.037,0 -25.433,11.396 -25.433,25.433l0,209.134c0,14.037 11.396,25.433 25.433,25.433l209.134,0c14.037,0 25.433,-11.396 25.433,-25.433l0,-209.134Z" style="fill:#343434;"/><path id="Map" d="M94,247l-81,0l0,-81c0,-12.928 3.036,-25.152 8.431,-36c-5.395,-10.847 -8.431,-23.071 -8.431,-36l0,-81l81,0c12.928,0 25.152,3.036 36,8.431c10.847,-5.395 23.071,-8.431 36,-8.431l81,0l0,81c0,12.929 -3.036,25.153 -8.431,36c5.395,10.847 8.431,23.072 8.431,36l0,81l-81,0l-0.524,-0.002c-12.734,-0.081 -24.775,-3.107 -35.476,-8.429c-10.847,5.395 -23.071,8.431 -36,8.431Zm144,-9l0,-72c0,-13.111 -3.512,-25.407 -9.645,-36c6.133,-10.593 9.645,-22.89 9.645,-36l0,-72l-72,0c-13.111,0 -25.407,3.512 -36,9.645c-10.592,-6.133 -22.89,-9.645 -36,-9.645l-72,0l0,72c0,13.11 3.512,25.407 9.645,36c-6.133,10.593 -9.645,22.89 -9.645,36l0,72l72,0c13.11,0 25.407,-3.512 36,-9.645c10.593,6.133 22.89,9.645 36,9.645l72,0Z" style="fill:#fff;"/><path id="Shield" d="M130,49c44.705,0 81,36.295 81,81c0,44.705 -36.295,81 -81,81c-44.705,0 -81,-36.295 -81,-81c0,-44.705 36.295,-81 81,-81Zm0,9c39.738,0 72,32.262 72,72c0,39.738 -32.262,72 -72,72c-39.738,0 -72,-32.262 -72,-72c0,-39.738 32.262,-72 72,-72Z" style="fill:#fff;"/><path id="Yong" d="M80.5,116.5l22.5,0l0,-22.5l13.5,0l0,22.5l27,0l0,-22.5l13.5,0l0,22.5l22.5,0l0,13.5l-22.5,0l-13.5,0l-27,0l-13.5,0l-22.5,0l0,-13.5Z" style="fill:#fff;"/><path id="G28" d="M112,162.4l-25.2,0l0,-5.4l25.2,0l0,5.4Zm61.2,0l-5.4,0l-3.6,-25.2l5.4,0l3.6,25.2Zm-16.2,-25.2l-3.6,25.2l-5.4,0l3.6,-25.2l5.4,0Zm-24.3,9.9l9.9,0l0,5.4l-9.9,0l0,9.9l-5.4,0l0,-9.9l-9.9,0l0,-5.4l9.9,0l0,-9.9l5.4,0l0,9.9Zm-20.7,-4.5l-25.2,0l0,-5.4l25.2,0l0,5.4Z" style="fill:#fff;"/></g></svg>