<svg id="DEOKSUYI" width="200px" height="200px" viewBox="0 0 100 100" version="1.1" xmlns="http://www.w3.org/2000/svg"><g id="DSYIM" fill="#333" stroke="#fff" stroke-width="4"><path id="M" d="M30,3C36,3 43,3 50,10C50,10 57,3 64,3H97V30C97,37 97,43 90,50C90,50 97,57 97,64V97H70C64,97 57,97 50,90C50,90 43,97 37,97H3V70C3,64 3,57 10,50C10,50 3,43 3,37V3H30"/><circle id="S" cx="50" cy="50" r="30"/><path id="Y" d="M30,50H70M43,50V37M57,50V37"/><path id="G" stroke-width="2" d="M35,57H43M35,63H43M50,55V65M45,60H55M59,56L57,64M63,56L65,64"/></g></svg>
