<?xml version="1.0" encoding="UTF-8" standalone="no"?><!DOCTYPE svg PUBLIC "-//W3C//DTD SVG 1.1//EN" "http://www.w3.org/Graphics/SVG/1.1/DTD/svg11.dtd"><svg width="100%" height="100%" viewBox="0 0 300 500" version="1.1" xmlns="http://www.w3.org/2000/svg" xmlns:xlink="http://www.w3.org/1999/xlink" xml:space="preserve" xmlns:serif="http://www.serif.com/" style="fill-rule:evenodd;clip-rule:evenodd;stroke-linejoin:round;stroke-miterlimit:2;"><g id="Background"><g><rect x="0" y="0" width="300" height="500"/></g></g><g id="DeoksuYi"><path id="Book" d="M27.513,295c-13.976,-62.217 -3.513,-126 -3.513,-126c0,0 63.783,-10.463 126,3.513c62.217,-13.976 126,-3.513 126,-3.513c0,0 10.463,63.783 -3.513,126c13.976,62.217 3.513,126 3.513,126c0,0 -63.783,10.463 -126,-3.513c-62.217,13.976 -126,3.513 -126,3.513c0,0 -10.463,-63.783 3.513,-126Z" style="stroke:#fff;stroke-width:5px;"/><g id="_28" serif:id="28"><rect x="105.949" y="306.846" width="26.18" height="7.104" style="fill:#fff;"/><path d="M171.657,306.846l-4.398,24.915l7.004,1.234l4.399,-24.916l-7.005,-1.233Z" style="fill:#fff;"/><path d="M182.647,308.079l4.399,24.916l7.005,-1.234l-4.399,-24.915l-7.005,1.233Z" style="fill:#fff;"/><path d="M136.682,316.368l9.534,0l0,-9.522l7.112,0l0,9.522l9.534,0l0,7.104l-9.534,0l0,9.523l-7.112,0l0,-9.523l-9.534,0l0,-7.104Z" style="fill:#fff;"/><rect x="105.949" y="325.89" width="26.18" height="7.104" style="fill:#fff;"/></g><path d="M123.378,281.875l0,-26.59l13.141,0l0.163,26.59c8.997,0.229 18.097,0.651 26.629,0l0,-26.59l13.141,0l0,26.59l26.792,0l0,13.125l-79.866,0l-26.622,0l0,-13.125l26.622,0m39.933,-26.59c0,0 0.22,26.306 0,26.59l0,-26.59" style="fill:#fff;"/><path d="M150,215.8c43.712,0 79.2,35.488 79.2,79.2c0,43.712 -35.488,79.2 -79.2,79.2c-43.712,0 -79.2,-35.488 -79.2,-79.2c0,-43.712 35.488,-79.2 79.2,-79.2Zm0,10.43c37.955,0 68.77,30.815 68.77,68.77c0,37.955 -30.815,68.77 -68.77,68.77c-37.955,0 -68.77,-30.815 -68.77,-68.77c0,-37.955 30.815,-68.77 68.77,-68.77Z" style="fill:#fff;"/></g></svg>