<?xml version="1.0" encoding="UTF-8" standalone="no"?>
<!DOCTYPE svg PUBLIC "-//W3C//DTD SVG 1.1//EN" "http://www.w3.org/Graphics/SVG/1.1/DTD/svg11.dtd">
<svg width="100px" height="100px" viewBox="0 0 260 260" version="1.1" xmlns="http://www.w3.org/2000/svg" xmlns:xlink="http://www.w3.org/1999/xlink" xml:space="preserve" xmlns:serif="http://www.serif.com/" style="fill-rule:evenodd;clip-rule:evenodd;stroke-linejoin:round;stroke-miterlimit:2;">
    <g id="DeoksuYiMap">
        <rect id="MapBgBox" x="10" y="10" width="240" height="240" style="fill:white;"/>
        <path id="Map" d="M90,260L0,260L0,170C0,155.636 3.373,142.053 9.368,130C3.373,117.948 0,104.365 0,90L0,0L90,0C104.364,0 117.947,3.373 130,9.368C142.052,3.373 155.635,0 170,0L260,0L260,90C260,104.365 256.627,117.948 250.632,130C256.627,142.052 260,155.635 260,170L260,260L170,260L169.418,259.998C155.269,259.908 141.89,256.546 130,250.632C117.948,256.627 104.366,260 90,260ZM250,250L250,170C250,155.432 246.098,141.77 239.283,130C246.098,118.23 250,104.567 250,90L250,10L170,10C155.432,10 141.77,13.902 130,20.717C118.231,13.902 104.567,10 90,10L10,10L10,90C10,104.567 13.902,118.23 20.717,130C13.902,141.77 10,155.433 10,170L10,250L90,250C104.567,250 118.23,246.098 130,239.283C141.77,246.098 155.433,250 170,250L250,250Z"/>
        <path id="Shield" d="M130,40C179.672,40 220,80.328 220,130C220,179.672 179.672,220 130,220C80.328,220 40,179.672 40,130C40,80.328 80.328,40 130,40ZM130,50C174.153,50 210,85.847 210,130C210,174.153 174.153,210 130,210C85.847,210 50,174.153 50,130C50,85.847 85.847,50 130,50Z"/>
        <path id="Yong" d="M75,115L100,115L100,90L115,90L115,115L145,115L145,90L160,90L160,115L185,115L185,130L160,130L145,130L115,130L100,130L75,130L75,115Z"/>
        <path id="G28" d="M110,166L82,166L82,160L110,160L110,166ZM178,166L172,166L168,138L174,138L178,166ZM160,138L156,166L150,166L154,138L160,138ZM133,149L144,149L144,155L133,155L133,166L127,166L127,155L116,155L116,149L127,149L127,138L133,138L133,149ZM110,144L82,144L82,138L110,138L110,144Z"/>
    </g>
</svg>