<?xml version="1.0" encoding="UTF-8" standalone="no"?><!DOCTYPE svg PUBLIC
"-//W3C//DTD SVG 1.1//EN" "http://www.w3.org/Graphics/SVG/1.1/DTD/svg11.dtd"><svg
width="100px" height="100px" viewBox="0 0 260 260" version="1.1"
xmlns="http://www.w3.org/2000/svg" xmlns:xlink="http://www.w3.org/1999/xlink"
xml:space="preserve" xmlns:serif="http://www.serif.com/"
style="fill-rule:evenodd;clip-rule:evenodd;stroke-linejoin:round;stroke-miterlimit:2;"><g
id="DeoksuYiMap"><path id="Map" d="M90,260l-90,0l0,-90c0,-14.364 3.373,-27.947
9.368,-40c-5.995,-12.052 -9.368,-25.635 -9.368,-40l0,-90l90,0c14.364,0 27.947,3.373
40,9.368c12.052,-5.995 25.635,-9.368 40,-9.368l90,0l0,90c0,14.365 -3.373,27.948
-9.368,40c5.995,12.052 9.368,25.635 9.368,40l0,90l-90,0l-0.582,-0.002c-14.149,-0.09
-27.528,-3.452 -39.418,-9.366c-12.052,5.995 -25.634,9.368
-40,9.368Zm160,-10l0,-80c0,-14.568 -3.902,-28.23 -10.717,-40c6.815,-11.77
10.717,-25.433 10.717,-40l0,-80l-80,0c-14.568,0 -28.23,3.902
-40,10.717c-11.769,-6.815 -25.433,-10.717 -40,-10.717l-80,0l0,80c0,14.567 3.902,28.23
10.717,40c-6.815,11.77 -10.717,25.433 -10.717,40l0,80l80,0c14.567,0 28.23,-3.902
40,-10.717c11.77,6.815 25.433,10.717 40,10.717l80,0Z" style="fill:#333333;"/><path
id="Shield" d="M130,40c49.672,0 90,40.328 90,90c0,49.672 -40.328,90 -90,90c-49.672,0
-90,-40.328 -90,-90c0,-49.672 40.328,-90 90,-90Zm0,10c44.153,0 80,35.847
80,80c0,44.153 -35.847,80 -80,80c-44.153,0 -80,-35.847 -80,-80c0,-44.153 35.847,-80
80,-80Z" style="fill:#333333;"/><path id="Yong"
d="M75,115l25,0l0,-25l15,0l0,25l30,0l0,-25l15,0l0,25l25,0l0,15l-110,0l0,-15Z"
style="fill:#333333;"/><path id="G28"
d="M110,166l-28,0l0,-6l28,0l0,6Zm68,0l-6,0l-4,-28l6,0l4,28Zm-18,-28l-4,28l-6,0l4,-28l6,0Zm-27,11l11,0l0,6l-11,0l0,11l-6,0l0,-11l-11,0l0,-6l11,0l0,-11l6,0l0,11Zm-23,-5l-28,0l0,-6l28,0l0,6Z"
style="fill:#333333;"/></g></svg>
