<?xml version="1.0" encoding="UTF-8" standalone="no"?>
<!DOCTYPE svg PUBLIC "-//W3C//DTD SVG 1.1//EN" "http://www.w3.org/Graphics/SVG/1.1/DTD/svg11.dtd">
<svg width="100%" height="100%" viewBox="0 0 1000 1000" version="1.1" xmlns="http://www.w3.org/2000/svg" xmlns:xlink="http://www.w3.org/1999/xlink" xml:space="preserve" xmlns:serif="http://www.serif.com/" style="fill-rule:evenodd;clip-rule:evenodd;stroke-linejoin:round;stroke-miterlimit:2;">
    <g id="Crest-of-Deoksuyi" serif:id="Crest of Deoksuyi" transform="matrix(3.32837,0,0,3.32837,-2635.59,-1533.99)">
        <g id="DeoksuYi" transform="matrix(3.30353,0,0,3.29956,-2105.1,-1995.48)">
            <g id="_28" serif:id="28" transform="matrix(1,0,0,1,0.652215,-2.14046)">
                <g transform="matrix(1.32235,0,0,0.718511,-257.763,216.119)">
                    <rect x="881.898" y="806.657" width="5.993" height="2.997" style="fill:white;"/>
                </g>
                <g transform="matrix(0.222166,-1.25996,0.707596,0.124768,160.258,1813.78)">
                    <rect x="881.898" y="806.657" width="5.993" height="2.997" style="fill:white;"/>
                </g>
                <g transform="matrix(-0.222166,-1.25996,0.707596,-0.124768,558.103,2015.44)">
                    <rect x="881.898" y="806.657" width="5.993" height="2.997" style="fill:white;"/>
                </g>
                <g transform="matrix(0.149894,0,0,0.15,877.432,744.981)">
                    <path d="M268.753,357.443L288.006,357.443L288.006,338.204L302.37,338.204L302.37,357.443L321.623,357.443L321.623,371.797L302.37,371.797L302.37,391.037L288.006,391.037L288.006,371.797L268.753,371.797L268.753,357.443Z" style="fill:white;"/>
                </g>
                <g transform="matrix(1.32235,0,0,0.718511,-257.763,221.891)">
                    <rect x="881.898" y="806.657" width="5.993" height="2.997" style="fill:white;"/>
                </g>
            </g>
            <g id="Modoo-Mo" serif:id="Modoo Mo" transform="matrix(1,0,0,1,5.69417,-40.0524)">
                <path d="M908.648,826.055L908.648,817.997L912.626,817.997L912.675,826.055C915.398,826.125 918.153,826.253 920.736,826.055L920.736,817.997L924.714,817.997L924.714,826.055L932.824,826.055L932.824,830.033L908.648,830.033L900.589,830.033L900.589,826.055L908.648,826.055M920.736,817.997C920.736,817.997 920.802,825.969 920.736,826.055L920.736,817.997" style="fill:white;"/>
            </g>
            <g id="The-shield" serif:id="The shield" transform="matrix(0.863825,0,0,0.866667,124.989,109.044)">
                <path d="M923.117,758.001C938.434,758.001 950.87,770.411 950.87,785.697C950.87,800.982 938.434,813.393 923.117,813.393C907.799,813.393 895.363,800.982 895.363,785.697C895.363,770.411 907.799,758.001 923.117,758.001ZM923.117,761.648C936.417,761.648 947.216,772.424 947.216,785.697C947.216,798.97 936.417,809.745 923.117,809.745C909.816,809.745 899.018,798.97 899.018,785.697C899.018,772.424 909.816,761.648 923.117,761.648Z" style="fill:white;"/>
            </g>
        </g>
        <g id="DSYi-28th" serif:id="DSYi 28th" transform="matrix(3.36175,0,0,3.35579,-2165.41,-2044.29)">
            <g transform="matrix(1.20082,6.463,-7.0597,1.09933,894.466,793.123)">
                <path d="M0.722,-0.127L0.722,-0.216L0.26,-0.216L0.26,-0.511L0.719,-0.511L0.719,-0.601L0.164,-0.601L0.164,-0.127L0.722,-0.127Z" style="fill:white;fill-rule:nonzero;"/>
            </g>
            <g transform="matrix(2.42451,6.16866,-6.73818,2.21959,895.496,798.735)">
                <path d="M0.759,-0.194C0.614,-0.231 0.492,-0.349 0.492,-0.477L0.492,-0.619L0.393,-0.619L0.393,-0.474C0.393,-0.35 0.265,-0.23 0.122,-0.189L0.164,-0.109C0.277,-0.137 0.391,-0.225 0.443,-0.321C0.494,-0.224 0.61,-0.138 0.721,-0.114L0.759,-0.194Z" style="fill:white;fill-rule:nonzero;"/>
            </g>
            <g transform="matrix(3.59431,5.67023,-6.19373,3.29051,897.594,804.088)">
                <path d="M0.432,-0.53C0.537,-0.53 0.618,-0.476 0.618,-0.369C0.618,-0.261 0.537,-0.205 0.432,-0.205C0.33,-0.205 0.249,-0.261 0.249,-0.369C0.249,-0.476 0.331,-0.53 0.432,-0.53ZM0.713,-0.369C0.713,-0.526 0.579,-0.616 0.432,-0.616C0.285,-0.616 0.15,-0.526 0.15,-0.369C0.15,-0.212 0.285,-0.119 0.432,-0.119C0.588,-0.119 0.713,-0.212 0.713,-0.369Z" style="fill:white;fill-rule:nonzero;"/>
            </g>
            <g transform="matrix(4.70635,4.94118,-5.39737,4.30856,900.703,809.008)">
                <path d="M0.439,-0.26C0.369,-0.307 0.331,-0.376 0.331,-0.467L0.331,-0.599L0.236,-0.599L0.236,-0.463C0.236,-0.356 0.164,-0.244 0.085,-0.186L0.15,-0.119C0.208,-0.157 0.258,-0.222 0.287,-0.285C0.308,-0.249 0.342,-0.218 0.377,-0.193L0.439,-0.26ZM0.799,-0.211C0.707,-0.275 0.651,-0.37 0.651,-0.472L0.651,-0.602L0.557,-0.602L0.557,-0.466C0.557,-0.357 0.49,-0.251 0.391,-0.177L0.452,-0.108C0.517,-0.159 0.572,-0.219 0.605,-0.285C0.634,-0.229 0.689,-0.173 0.742,-0.141L0.799,-0.211Z" style="fill:white;fill-rule:nonzero;"/>
            </g>
            <g transform="matrix(5.68457,3.98701,-4.35511,5.2041,904.769,813.307)">
                <path d="M0.729,-0.214L0.261,-0.214L0.261,-0.323L0.716,-0.323L0.716,-0.413L0.261,-0.413L0.261,-0.513L0.726,-0.513L0.726,-0.603L0.164,-0.603L0.164,-0.126L0.729,-0.126L0.729,-0.214Z" style="fill:white;fill-rule:nonzero;"/>
            </g>
            <g transform="matrix(6.46955,2.81072,-3.07023,5.92273,909.702,816.791)">
                <path d="M0.722,-0.127L0.722,-0.216L0.26,-0.216L0.26,-0.511L0.719,-0.511L0.719,-0.601L0.164,-0.601L0.164,-0.127L0.722,-0.127Z" style="fill:white;fill-rule:nonzero;"/>
            </g>
            <g transform="matrix(6.98501,1.44487,-1.57827,6.39463,915.307,819.243)">
                <path d="M0.743,-0.206L0.602,-0.206L0.633,-0.457L0.541,-0.469L0.509,-0.206L0.369,-0.206L0.345,-0.469L0.253,-0.457L0.278,-0.206L0.14,-0.206L0.14,-0.121L0.743,-0.121L0.743,-0.206ZM0.729,-0.601L0.154,-0.601L0.154,-0.515L0.729,-0.515L0.729,-0.601Z" style="fill:white;fill-rule:nonzero;"/>
            </g>
            <g transform="matrix(7.1611,0.00284386,-0.00310642,6.55583,921.374,820.5)">
                <path d="M0.432,-0.53C0.537,-0.53 0.618,-0.476 0.618,-0.369C0.618,-0.261 0.537,-0.205 0.432,-0.205C0.33,-0.205 0.249,-0.261 0.249,-0.369C0.249,-0.476 0.331,-0.53 0.432,-0.53ZM0.713,-0.369C0.713,-0.526 0.579,-0.616 0.432,-0.616C0.285,-0.616 0.15,-0.526 0.15,-0.369C0.15,-0.212 0.285,-0.119 0.432,-0.119C0.588,-0.119 0.713,-0.212 0.713,-0.369Z" style="fill:white;fill-rule:nonzero;"/>
            </g>
            <g transform="matrix(6.97824,-1.47203,1.60794,6.38843,927.602,820.506)">
                <path d="M0.759,-0.194C0.614,-0.231 0.492,-0.349 0.492,-0.477L0.492,-0.619L0.393,-0.619L0.393,-0.474C0.393,-0.35 0.265,-0.23 0.122,-0.189L0.164,-0.109C0.277,-0.137 0.391,-0.225 0.443,-0.321C0.494,-0.224 0.61,-0.138 0.721,-0.114L0.759,-0.194Z" style="fill:white;fill-rule:nonzero;"/>
            </g>
            <g transform="matrix(6.45327,-2.84191,3.10429,5.90783,933.67,819.231)">
                <path d="M0.743,-0.206L0.602,-0.206L0.633,-0.457L0.541,-0.469L0.509,-0.206L0.369,-0.206L0.345,-0.469L0.253,-0.457L0.278,-0.206L0.14,-0.206L0.14,-0.121L0.743,-0.121L0.743,-0.206ZM0.729,-0.601L0.154,-0.601L0.154,-0.515L0.729,-0.515L0.729,-0.601Z" style="fill:white;fill-rule:nonzero;"/>
            </g>
            <g transform="matrix(5.66103,-4.01499,4.38567,5.18255,939.266,816.774)">
                <path d="M0.722,-0.127L0.722,-0.216L0.26,-0.216L0.26,-0.511L0.719,-0.511L0.719,-0.601L0.164,-0.601L0.164,-0.127L0.722,-0.127Z" style="fill:white;fill-rule:nonzero;"/>
            </g>
            <g transform="matrix(4.6844,-4.95863,5.41643,4.28846,944.191,813.286)">
                <path d="M0.759,-0.194C0.614,-0.231 0.492,-0.349 0.492,-0.477L0.492,-0.619L0.393,-0.619L0.393,-0.474C0.393,-0.35 0.265,-0.23 0.122,-0.189L0.164,-0.109C0.277,-0.137 0.391,-0.225 0.443,-0.321C0.494,-0.224 0.61,-0.138 0.721,-0.114L0.759,-0.194Z" style="fill:white;fill-rule:nonzero;"/>
            </g>
            <g transform="matrix(3.59654,-5.66904,6.19244,3.29255,948.249,808.99)">
                <path d="M0.432,-0.53C0.537,-0.53 0.618,-0.476 0.618,-0.369C0.618,-0.261 0.537,-0.205 0.432,-0.205C0.33,-0.205 0.249,-0.261 0.249,-0.369C0.249,-0.476 0.331,-0.53 0.432,-0.53ZM0.713,-0.369C0.713,-0.526 0.579,-0.616 0.432,-0.616C0.285,-0.616 0.15,-0.526 0.15,-0.369C0.15,-0.212 0.285,-0.119 0.432,-0.119C0.588,-0.119 0.713,-0.212 0.713,-0.369Z" style="fill:white;fill-rule:nonzero;"/>
            </g>
            <g transform="matrix(2.40758,-6.17421,6.74425,2.20408,951.366,804.072)">
                <path d="M0.715,-0.129L0.715,-0.599L0.158,-0.599L0.158,-0.51L0.619,-0.51L0.619,-0.129L0.715,-0.129Z" style="fill:white;fill-rule:nonzero;"/>
            </g>
            <g transform="matrix(1.18809,-6.46497,7.06185,1.08767,953.452,798.718)">
                <path d="M0.432,-0.53C0.537,-0.53 0.618,-0.476 0.618,-0.369C0.618,-0.261 0.537,-0.205 0.432,-0.205C0.33,-0.205 0.249,-0.261 0.249,-0.369C0.249,-0.476 0.331,-0.53 0.432,-0.53ZM0.713,-0.369C0.713,-0.526 0.579,-0.616 0.432,-0.616C0.285,-0.616 0.15,-0.526 0.15,-0.369C0.15,-0.212 0.285,-0.119 0.432,-0.119C0.588,-0.119 0.713,-0.212 0.713,-0.369Z" style="fill:white;fill-rule:nonzero;"/>
            </g>
        </g>
        <g id="Book" transform="matrix(0.976769,0,0,0.980626,172.085,-109.165)">
            <path d="M657.704,734.504C642.801,668.164 653.958,600.153 653.958,600.153C653.958,600.153 721.968,588.997 788.308,603.899C854.648,588.997 922.658,600.153 922.658,600.153C922.658,600.153 933.815,668.164 918.912,734.504C933.815,800.844 922.658,868.854 922.658,868.854C922.658,868.854 854.648,880.01 788.308,865.108C721.968,880.01 653.958,868.854 653.958,868.854C653.958,868.854 642.801,800.844 657.704,734.504ZM665.808,734.504C651.832,672.287 662.295,608.504 662.295,608.504C662.295,608.504 726.078,598.041 788.295,612.017C850.512,598.041 914.295,608.504 914.295,608.504C914.295,608.504 924.758,672.287 910.782,734.504C924.758,796.72 914.295,860.504 914.295,860.504C914.295,860.504 850.512,870.967 788.295,856.99C726.078,870.967 662.295,860.504 662.295,860.504C662.295,860.504 651.832,796.72 665.808,734.504Z" style="fill:white;"/>
        </g>
    </g>
</svg>
